<svg xmlns="http://www.w3.org/2000/svg" viewBox="0 0 320 290"><title>candle green</title><defs>
<linearGradient id="bg" x2="1" y2="1"><stop stop-color="#565e48"/><stop offset="1" stop-color="#2b3326"/></linearGradient>
<radialGradient id="light"><stop stop-color="#b0b391" stop-opacity=".25"/><stop offset="1" stop-color="#454d36" stop-opacity="0"/></radialGradient>
<linearGradient id="amber"><stop stop-color="#3a2414"/><stop offset=".3" stop-color="#a66c36"/><stop offset=".75" stop-color="#664020"/><stop offset="1" stop-color="#2d2114"/></linearGradient>
<linearGradient id="green"><stop stop-color="#212b1e"/><stop offset=".45" stop-color="#647348"/><stop offset="1" stop-color="#252f20"/></linearGradient>
<linearGradient id="cream"><stop stop-color="#857d63"/><stop offset=".4" stop-color="#d0c7ab"/><stop offset="1" stop-color="#756e57"/></linearGradient>
<linearGradient id="paper"><stop stop-color="#9b956f"/><stop offset=".5" stop-color="#c4bf94"/><stop offset="1" stop-color="#8e8d67"/></linearGradient>
<linearGradient id="clay"><stop stop-color="#855539"/><stop offset=".5" stop-color="#c39166"/><stop offset="1" stop-color="#825335"/></linearGradient>
<linearGradient id="sand"><stop stop-color="#8d8263"/><stop offset=".5" stop-color="#d2c8a7"/><stop offset="1" stop-color="#8e8266"/></linearGradient>
<linearGradient id="stone" x2=".7" y2="1"><stop stop-color="#989c7c"/><stop offset="1" stop-color="#62694f"/></linearGradient>
<filter id="shadow" x="-50%" y="-40%" width="220%" height="200%"><feDropShadow dx="9" dy="15" stdDeviation="11" flood-color="#111a0d" flood-opacity=".55"/></filter>
<filter id="blur"><feGaussianBlur stdDeviation="6"/></filter>
<filter id="grain"><feTurbulence type="fractalNoise" baseFrequency=".55" numOctaves="3" stitchTiles="stitch"/><feColorMatrix type="saturate" values="0"/><feComponentTransfer><feFuncA type="linear" slope=".055"/></feComponentTransfer><feBlend in="SourceGraphic" mode="soft-light"/></filter>
</defs><rect width="320" height="290" fill="url(#bg)"/><ellipse cx="130" cy="75" rx="200" ry="140" fill="url(#light)"/><path d="M0 239Q160 220 320 239V290H0Z" fill="#515a42" opacity=".3"/><g transform="translate(10,8)"><g filter="url(#shadow)"><path d="M78 81Q78 64 150 64Q222 64 222 81L218 225Q215 245 150 245Q85 245 82 225Z" fill="url(#green)"/><ellipse cx="150" cy="81" rx="72" ry="19" fill="#2e2a1c"/><ellipse cx="150" cy="81" rx="65" ry="15" fill="#c5b88b"/><ellipse cx="150" cy="83" rx="60" ry="11" fill="#e1d4ac"/><path d="M150 80l1-12" stroke="#34281a" stroke-width="3"/><path d="M150 70Q136 51 150 36Q164 55 150 70" fill="#eab065"/><path d="M150 66Q145 56 150 48Q154 59 150 66" fill="#fff0b9"/><path d="M94 103L97 209" stroke="#e9bb77" opacity=".15" stroke-width="5"/><path d="M98 123Q150 131 202 123L200 204Q150 213 100 204Z" fill="#d6d2b6"/><text x="150" y="146" text-anchor="middle" font-family="Georgia,serif" fill="#36402a" font-size="12">amber &amp; smoke</text><path d="M118 155h64" stroke="#a3a488" stroke-width=".6"/><text x="150" y="174" text-anchor="middle" font-family="Arial" fill="#485035" font-size="8" letter-spacing="2">FOREST</text><text x="150" y="186" text-anchor="middle" font-family="Arial" fill="#6e7255" font-size="5" letter-spacing=".8">CEDAR &amp; MOSS</text><text x="150" y="199" text-anchor="middle" font-family="Arial" fill="#6e7255" font-size="5">HAND-POURED · 180 G</text></g></g><rect width="320" height="290" fill="transparent" filter="url(#grain)" pointer-events="none"/></svg>
